<?xml version="1.0" standalone="no"?>
<!DOCTYPE svg PUBLIC "-//W3C//DTD SVG 20010904//EN"
 "http://www.w3.org/TR/2001/REC-SVG-20010904/DTD/svg10.dtd">
<svg version="1.0" xmlns="http://www.w3.org/2000/svg"
 width="960.000000pt" height="960.000000pt" viewBox="0 0 960.000000 960.000000"
 preserveAspectRatio="xMidYMid meet">
<metadata>
Created by potrace 1.11, written by Peter Selinger 2001-2013
</metadata>
<g transform="translate(0.000000,960.000000) scale(0.100000,-0.100000)"
fill="#000000" stroke="none">
<path d="M1790 9589 c-359 -37 -733 -188 -1020 -412 -96 -75 -253 -230 -330
-327 -97 -122 -163 -227 -236 -375 -370 -753 -227 -1656 360 -2264 422 -437
1026 -660 1627 -601 451 45 864 234 1188 545 357 342 567 780 612 1278 l12
127 797 0 797 0 12 -132 c23 -256 85 -478 195 -703 69 -141 153 -275 232 -370
28 -33 53 -65 57 -72 5 -7 -517 -526 -1393 -1387 l-1401 -1376 -57 47 c-95 77
-243 170 -373 233 -694 335 -1515 242 -2119 -240 -228 -182 -413 -414 -546
-685 -271 -551 -271 -1198 0 -1750 273 -556 777 -951 1376 -1079 651 -139
1321 50 1799 509 357 342 567 780 612 1278 l12 127 797 0 797 0 12 -133 c23
-255 85 -477 195 -702 200 -408 513 -721 921 -921 549 -269 1191 -271 1743 -4
753 364 1204 1164 1122 1991 -40 400 -199 782 -452 1084 -191 229 -407 398
-670 525 -693 335 -1514 242 -2118 -240 -97 -77 -252 -234 -327 -330 -188
-241 -330 -554 -384 -846 -12 -65 -23 -125 -25 -131 -5 -19 -1623 -19 -1628 0
-2 6 -13 66 -25 131 -55 298 -212 638 -397 861 -28 33 -53 65 -57 72 -5 7 519
529 1393 1387 l1401 1376 67 -54 c103 -82 214 -152 357 -222 549 -269 1191
-271 1743 -4 753 364 1204 1164 1122 1991 -40 400 -199 782 -452 1084 -191
229 -407 398 -670 525 -693 335 -1514 242 -2118 -240 -97 -77 -252 -234 -327
-330 -188 -241 -330 -554 -384 -846 -12 -65 -23 -125 -25 -131 -3 -10 -174
-13 -814 -13 -640 0 -811 3 -814 13 -2 6 -13 66 -25 131 -73 396 -281 774
-587 1066 -419 401 -1000 598 -1584 539z m398 -200 c476 -51 909 -286 1205
-652 99 -123 157 -213 227 -360 308 -639 213 -1387 -245 -1937 -377 -452 -977
-694 -1563 -629 -469 51 -891 276 -1190 634 -209 249 -337 528 -399 865 -24
132 -24 448 0 580 119 649 527 1151 1131 1390 134 53 297 90 491 113 68 8 252
6 343 -4z m5600 0 c476 -51 909 -286 1205 -652 99 -123 157 -213 227 -360 241
-500 240 -1060 -4 -1562 -394 -813 -1318 -1204 -2181 -924 -107 35 -291 122
-394 186 -371 231 -660 621 -775 1044 -49 180 -60 270 -60 479 0 209 11 298
60 480 129 480 470 896 919 1123 211 107 390 158 660 190 68 8 252 6 343 -4z
m-5600 -5600 c476 -51 909 -286 1205 -652 99 -123 157 -213 227 -360 308 -639
213 -1387 -245 -1937 -377 -452 -977 -694 -1563 -629 -469 51 -891 276 -1190
634 -209 249 -337 528 -399 865 -24 132 -24 448 0 580 119 649 527 1151 1131
1390 134 53 297 90 491 113 68 8 252 6 343 -4z m5600 0 c476 -51 909 -286
1205 -652 99 -123 157 -213 227 -360 241 -500 240 -1060 -4 -1562 -394 -813
-1318 -1204 -2181 -924 -107 35 -291 122 -394 186 -371 231 -660 621 -775
1044 -49 180 -60 270 -60 479 0 209 11 298 60 480 129 480 470 896 919 1123
211 107 390 158 660 190 68 8 252 6 343 -4z"/>
<path d="M957 8573 c-4 -3 -7 -48 -7 -100 l0 -93 1020 0 1021 0 -3 98 -3 97
-1011 3 c-556 1 -1014 -1 -1017 -5z"/>
<path d="M1130 7595 l0 -105 823 2 822 3 0 100 0 100 -822 3 -823 2 0 -105z"/>
<path d="M800 6660 l0 -100 1165 0 1165 0 0 100 0 100 -1165 0 -1165 0 0 -100z"/>
<path d="M7528 8643 l-3 -148 -513 -3 -512 -2 2 -313 3 -312 97 -3 98 -3 2
223 3 223 925 0 925 0 3 -222 2 -223 100 0 100 0 0 315 0 315 -512 2 -513 3
-3 148 -3 147 -99 0 -99 0 -3 -147z"/>
<path d="M7573 8013 l-653 -3 0 -95 0 -95 542 0 541 0 -24 -26 c-33 -36 -167
-140 -261 -203 -69 -46 -82 -51 -132 -51 l-56 0 0 -100 0 -100 -525 0 -525 0
0 -100 0 -100 525 0 525 0 0 -299 c0 -266 -2 -300 -17 -312 -13 -11 -62 -14
-230 -13 -117 1 -213 0 -213 -1 0 -1 18 -41 40 -88 22 -47 40 -91 40 -98 0 -9
41 -11 188 -6 266 9 343 33 383 121 17 37 19 71 19 368 l0 328 528 2 527 3 0
95 0 95 -527 3 -528 2 0 38 c0 38 2 40 96 98 147 91 298 208 422 328 61 60
112 112 112 116 0 12 -122 100 -134 98 -6 -2 -305 -4 -663 -5z"/>
<path d="M1358 3178 l-3 -103 -272 -3 -273 -2 0 -70 0 -70 635 0 635 0 0 70 0
70 -265 0 -264 0 -3 103 -3 102 -92 3 -92 3 -3 -103z"/>
<path d="M2370 3075 l0 -204 -147 -3 -148 -3 0 -85 0 -85 148 -3 c108 -2 147
-6 147 -15 -1 -51 -22 -297 -28 -319 l-7 -27 -104 70 c-56 38 -107 69 -111 67
-5 -2 -29 -31 -54 -65 l-45 -62 117 -85 c167 -122 155 -111 148 -143 -13 -53
-106 -228 -158 -297 -66 -87 -165 -187 -248 -250 -36 -26 -64 -50 -62 -52 2
-2 31 -30 66 -64 l63 -60 64 48 c160 121 299 290 385 467 l53 110 106 -107
105 -106 25 34 c14 19 36 49 50 68 14 19 25 41 25 50 0 12 -112 122 -228 222
l-33 29 16 90 c9 50 19 159 22 243 l6 152 134 0 133 0 0 -214 c0 -288 17 -596
41 -736 24 -146 70 -247 130 -287 77 -51 184 -38 231 27 25 36 47 132 57 251
l8 104 -61 56 -61 57 -7 -137 c-6 -135 -22 -211 -45 -218 -21 -7 -52 34 -68
90 -30 103 -36 213 -42 700 l-5 487 -224 0 -224 0 0 205 0 205 -85 0 -85 0 0
-205z"/>
<path d="M980 2605 l0 -215 470 0 470 0 0 215 0 215 -470 0 -470 0 0 -215z
m770 -5 l0 -90 -300 0 -300 0 0 90 0 90 300 0 300 0 0 -90z"/>
<path d="M900 2210 l0 -70 363 -1 362 0 -85 -44 c-64 -33 -97 -44 -132 -44
l-48 -1 0 -69 c0 -58 -3 -71 -17 -75 -10 -3 -134 -8 -277 -12 l-258 -7 6 -51
c3 -28 6 -62 6 -75 l0 -24 163 6 c89 4 210 10 270 13 l107 7 0 -96 c0 -66 -4
-98 -12 -104 -7 -4 -78 -7 -156 -6 -109 2 -143 -1 -138 -10 2 -7 16 -39 30
-72 l25 -60 140 2 c160 2 209 12 254 53 l32 28 3 136 4 136 26 1 c110 2 473
27 479 33 4 4 9 37 11 73 l5 66 -94 -6 c-52 -4 -169 -10 -261 -13 -213 -9
-218 -1 -56 83 62 31 157 87 211 123 l99 65 -49 42 -48 43 -482 0 -483 0 0
-70z"/>
<path d="M2791 1329 c-46 -16 -85 -30 -87 -32 -2 -2 23 -38 55 -80 79 -103
190 -267 235 -349 l37 -66 92 30 c51 17 95 34 100 37 11 11 -90 167 -204 316
-105 138 -135 175 -141 174 -1 0 -41 -14 -87 -30z"/>
<path d="M1099 1278 c-52 -110 -140 -238 -220 -322 -39 -42 -70 -78 -68 -80 2
-2 42 -20 89 -40 l85 -36 65 68 c36 37 88 101 115 142 48 71 158 281 151 287
-2 2 -36 13 -77 24 -41 11 -81 22 -90 24 -11 4 -25 -15 -50 -67z"/>
<path d="M2222 1302 c-69 -13 -82 -18 -76 -31 37 -90 99 -268 117 -341 13 -49
26 -92 28 -94 4 -4 90 11 167 29 30 7 29 25 -17 162 -52 156 -110 293 -125
292 -6 -1 -48 -9 -94 -17z"/>
<path d="M1668 1290 c-38 -3 -70 -9 -73 -11 -2 -3 4 -64 14 -135 10 -71 22
-171 26 -223 l7 -93 52 6 c28 4 71 9 95 13 l44 6 -7 101 c-4 55 -17 155 -29
221 -25 136 -15 127 -129 115z"/>
<path d="M6540 3090 l0 -80 370 0 370 0 0 80 0 80 -370 0 -370 0 0 -80z"/>
<path d="M7460 3080 l0 -90 211 0 212 0 -6 -27 c-3 -16 -13 -79 -22 -140 l-17
-113 -169 0 -169 0 0 -85 0 -85 156 0 156 0 -5 -22 c-3 -13 -20 -101 -38 -195
l-33 -173 -178 0 -178 0 0 -90 0 -90 750 0 750 0 0 90 0 90 -120 0 -120 0 0
280 0 280 -298 0 c-164 0 -301 2 -304 5 -4 5 23 188 37 253 l5 22 355 0 355 0
0 90 0 90 -665 0 -665 0 0 -90z m990 -735 l0 -195 -260 0 -260 0 5 23 c7 34
52 277 60 325 l7 42 224 0 224 0 0 -195z"/>
<path d="M6390 2730 l0 -80 490 0 490 0 0 80 0 80 -490 0 -490 0 0 -80z"/>
<path d="M6520 2360 l0 -80 380 0 380 0 0 80 0 80 -380 0 -380 0 0 -80z"/>
<path d="M6520 1990 l0 -80 380 0 380 0 0 80 0 80 -380 0 -380 0 0 -80z"/>
<path d="M7580 1275 l0 -486 93 3 92 3 3 63 3 62 374 0 375 0 0 -55 0 -55 100
0 100 0 -2 473 -3 472 -567 3 -568 2 0 -485z m940 65 l0 -240 -375 0 -375 0 0
240 0 240 375 0 375 0 0 -240z"/>
<path d="M6520 1250 l0 -450 85 0 85 0 0 60 0 60 300 0 300 0 0 390 0 390
-385 0 -385 0 0 -450z m590 60 l0 -230 -207 2 -208 3 -3 228 -2 227 210 0 210
0 0 -230z"/>
</g>
</svg>
