<svg version="1.0" xmlns="http://www.w3.org/2000/svg" width="700pt" height="700pt" viewBox="0 0 700 700"><g transform="translate(0.000000,700.000000) scale(0.100000,-0.100000)" fill="#000" stroke="none"><path d="M1245 6986c-331-55-587-186-820-420-208-209-333-441-396-736-32-149-33-429-1-573 1e2-457 386-826 793-1024 332-162 737-191 1088-76 88 28 244 1e2 316 145 182 115 357 290 472 473 114 180 213 482 213 649 0 22 3 51 6 64l6 22h578 578l6-31c3-17 6-46 6-64 0-50 27-191 55-290 36-128 150-351 234-460l70-90-97-96c-113-112-1761-1728-1872-1835l-75-73-65 50c-442 337-1047 390-1543 137-397-203-673-566-769-1011-31-147-31-427 0-574C170 514 705 50 1376 4c196-13 457 31 644 110 390 165 694 496 824 896 35 109 66 264 66 334 0 23 3 51 6 64l6 22h578 578l6-31c3-17 6-46 6-63 0-59 32-220 62-316 135-422 461-768 873-923 181-69 418-105 599-93 671 46 1207 511 1348 1169 31 148 31 428 0 574-127 589-561 1020-1152 1144-137 29-388 32-527 6-4e2-73-744-3e2-968-637-106-159-190-368-217-537l-12-83h-597-596l-6 53c-24 203-137 464-287 659l-58 76 1019 1001c560 551 1021 1001 1024 1001 3 0 33-22 68-48 219-170 496-273 775-291 598-37 1123 260 1402 792 107 203 155 413 155 667-1 186-16 280-71 451-70 219-183 399-358 575-209 209-458 341-753 401-131 27-433 24-563-5-388-85-710-304-926-628-99-148-179-344-210-513-9-47-18-92-20-98-3-10-131-13-597-13h-593l-12 80c-15 109-82 304-142 418-171 324-473 586-810 702-150 51-267 71-445 75-113 3-197 0-250-9zm440-152c250-41 487-161 679-345 346-330 485-826 361-1287-122-452-482-810-934-928-331-86-692-38-985 132-340 197-574 532-640 913-20 121-21 331-1 447 72 411 335 763 712 953 246 123 518 162 808 115zm4015 11c77-7 234-45 311-75 405-160 693-488 806-920 35-132 43-372 18-521-89-535-490-953-1026-1070-124-27-366-32-489-10-792 142-1273 944-1023 1706 161 492 614 851 1128 894 98 8 143 8 275-4zM1725 2746c548-123 947-547 1030-1096 52-340-40-7e2-250-979-193-256-466-429-788-498-62-14-126-18-267-18-167 1-196 3-293 28-256 64-466 184-643 369-1e2 104-162 191-225 315-95 187-139 374-139 593 0 361 125 663 380 921 2e2 203 433 324 720 375 98 17 379 11 475-10zm4085-1c262-58 465-169 655-360 258-258 385-563 385-924 0-215-43-404-132-581-179-355-486-6e2-871-696-139-35-368-43-512-20-566 93-1004 537-1090 1106-71 467 126 948 504 1233 165 125 376 217 572 251 110 20 383 14 489-9z"/><path d="M1370 6355v-85h-160-160v-25c0-23-3-21-71 29-39 30-115 77-168 105l-98 51-33-43c-18-23-37-47-42-54-6-8 16-25 73-55 45-23 120-73 168-109l86-65 40 55 40 56 3-32 3-33h160 159v-70-70h70 70v70 70h160 160v-70-70h70 70v70 70l173 2 172 3 3 58 3 57h-176-175v85 85h-70-70v-85-85h-160-160v85 85h-70-70v-85z"/><path d="M1167 5963c-4-3-7-1e2-7-215v-208h220 220v-65-65l-242-2-243-3v-55-55l238-3 239-2-7-43c-16-95 10-86-287-89l-263-3-3-57-3-58h231c126 0 230-4 230-8 0-15-96-101-158-141-63-39-235-112-299-126-18-4-33-9-33-12 0-7 81-113 86-113 1 0 36 12 76 26 92 33 217 96 288 144 66 45 170 152 195 199 15 30 19 33 29 19 106-152 176-216 306-287 62-33 242-101 269-101 4 0 13 11 19 24 6 13 25 40 42 59l31 36-43 10c-189 46-329 114-420 204l-63 62 258 3 258 2-3 58-3 57-309 3c-266 2-307 4-302 17 3 8 8 37 12 65l7 50 256 2 256 3 3 58 3 57h-256-255v65 65h225 225v215 215h-508c-280 0-512-3-515-7zm431-210 3-103h-156-155v105 106l153-3 152-3 3-102zm462 2v-105h-160-160v105 105h160 160v-105z"/><path d="M568 5848l-38-52 93-49c50-27 127-73 169-103l77-54 40 59c46 67 48 62-52 125-61 39-231 126-244 126-4 0-25-24-45-52z"/><path d="M873 5327c-49-111-189-390-241-480l-50-87 61-45c57-41 63-43 76-27 31 39 291 586 291 612 0 4-25 26-54 49l-55 41-28-63z"/><path d="M5488 6303l-3-108-373-3-372-2 2-228 3-227h70 70l3 163 2 162h675 675v-165-165h75 75v230 230h-375-375v110 110h-75-74l-3-107z"/><path d="M5518 5843l-478-3v-65-65l403-2 402-3-70-58c-122-102-197-147-244-147h-41v-75-75h-385-386l3-67 3-68 383-3 382-2v-224c0-195-2-225-16-230-9-3-83-6-165-6-82 0-149-2-149-4 0-2 14-33 30-70l30-66h98c117 0 222 15 262 35 59 31 64 55 68 323l4 242h379 379v70 70h-380-380v33c0 29 7 36 67 72 128 76 383 289 383 320 0 13-84 76-97 73-4-2-223-4-485-5z"/><path d="M940 2240c-45-20-64-34-62-45 5-26 129-301 205-454l72-144-25-16c-123-79-253-236-291-348-49-147-21-3e2 72-393 129-129 352-174 746-152 114 7 253 19 308 27 55 8 103 15 108 15 11 0 9 170-3 170-5 0-65-9-132-20-357-57-659-52-801 13-117 53-164 126-155 241 7 88 52 169 139 250 116 110 226 178 614 378 149 77 274 143 278 148 10 8-62 139-76 140-5 0-23-11-40-24-18-14-140-83-272-154-132-70-261-141-287-156l-47-27-25 43c-40 69-139 283-191 416-27 67-54 122-59 121-6-1-40-14-76-29z"/><path d="M5077 2294c-4-4-7-24-7-44 0-21-9-103-20-184-49-360-62-619-40-805 5-46 11-84 12-85 2-1 36 0 76 2l73 4-7 82c-19 231 78 490 243 652 154 152 330 171 443 48 90-97 124-221 125-449 0-178-15-250-78-370-39-73-142-178-221-224-83-49-225-1e2-346-124-58-12-106-22-108-23-2-1 17-33 42-72l46-70 82 18c393 86 634 286 721 599 18 65 21 103 21 266 0 209-13 284-73 410-184 392-627 335-868-110-22-41-33-53-33-38 0 58 72 481 87 506 2 4-27 7-66 7-38 0-76 2-83 5-8 3-17 2-21-1z"/></g></svg>