<svg version="1.0" xmlns="http://www.w3.org/2000/svg" width="960pt" height="960pt" viewBox="0 0 960 960"><g transform="translate(0.000000,960.000000) scale(0.100000,-0.100000)" fill="#000" stroke="none"><path d="M1790 9589c-359-37-733-188-1020-412-96-75-253-230-330-327-97-122-163-227-236-375-370-753-227-1656 360-2264 422-437 1026-660 1627-601 451 45 864 234 1188 545 357 342 567 780 612 1278l12 127h797 797l12-132c23-256 85-478 195-703 69-141 153-275 232-370 28-33 53-65 57-72 5-7-517-526-1393-1387L3299 3520l-57 47c-95 77-243 170-373 233-694 335-1515 242-2119-240-228-182-413-414-546-685-271-551-271-1198 0-1750C477 569 981 174 1580 46c651-139 1321 50 1799 509 357 342 567 780 612 1278l12 127h797 797l12-133c23-255 85-477 195-702 2e2-408 513-721 921-921 549-269 1191-271 1743-4 753 364 1204 1164 1122 1991-40 4e2-199 782-452 1084-191 229-407 398-670 525-693 335-1514 242-2118-240-97-77-252-234-327-330-188-241-330-554-384-846-12-65-23-125-25-131-5-19-1623-19-1628 0-2 6-13 66-25 131-55 298-212 638-397 861-28 33-53 65-57 72-5 7 519 529 1393 1387l1401 1376 67-54c103-82 214-152 357-222 549-269 1191-271 1743-4 753 364 1204 1164 1122 1991-40 4e2-199 782-452 1084-191 229-407 398-670 525-693 335-1514 242-2118-240-97-77-252-234-327-330-188-241-330-554-384-846-12-65-23-125-25-131-3-10-174-13-814-13-640 0-811 3-814 13-2 6-13 66-25 131-73 396-281 774-587 1066-419 401-1e3 598-1584 539zm398-2e2c476-51 909-286 1205-652 99-123 157-213 227-360 308-639 213-1387-245-1937-377-452-977-694-1563-629-469 51-891 276-1190 634-209 249-337 528-399 865-24 132-24 448 0 580 119 649 527 1151 1131 1390 134 53 297 90 491 113 68 8 252 6 343-4zm56e2.0c476-51 909-286 1205-652 99-123 157-213 227-360 241-5e2 240-1060-4-1562-394-813-1318-1204-2181-924-107 35-291 122-394 186-371 231-660 621-775 1044-49 180-60 270-60 479 0 209 11 298 60 480 129 480 470 896 919 1123 211 107 390 158 660 190 68 8 252 6 343-4zM2188 3789c476-51 909-286 1205-652 99-123 157-213 227-360 308-639 213-1387-245-1937-377-452-977-694-1563-629-469 51-891 276-1190 634-209 249-337 528-399 865-24 132-24 448 0 580 119 649 527 1151 1131 1390 134 53 297 90 491 113 68 8 252 6 343-4zm56e2.0c476-51 909-286 1205-652 99-123 157-213 227-360 241-5e2 240-1060-4-1562C8822 402 7898 11 7035 291c-107 35-291 122-394 186-371 231-660 621-775 1044-49 180-60 270-60 479 0 209 11 298 60 480 129 480 470 896 919 1123 211 107 390 158 660 190 68 8 252 6 343-4z"/><path d="M1880 8720v-120h-220-220v-80-80h220 220v-1e2-1e2h95 95v1e2 1e2h220 220v-1e2-1e2h95 95v1e2 1e2h240 240v80 80h-240-240v120 121l-92-3-93-3-3-117-3-118h-219-219l-3 118-3 117-92 3-93 3v-121z"/><path d="M921 8744c-28-37-51-69-51-73 0-3 28-21 63-38 88-46 240-146 320-210 38-30 70-53 72-51 18 17 105 145 105 153-1 25-180 149-333 230-57 30-108 55-114 55-6 0-34-30-62-66z"/><path d="M16e2 7890v-290h295 295v-90-90h-330-330v-80-80h325 325l-1-27c0-16-8-57-17-93l-17-65-362-3-363-2v-80-80l318-2 317-3-70-71c-120-122-301-221-528-289l-95-29 41-51c23-29 51-64 62-79l20-28 115 42c301 111 518 260 636 437 22 32 44 58 49 58 6 0 27-27 49-60 48-74 191-217 271-270 121-80 286-151 448-194 35-9 38-8 52 18 7 15 34 53 59 84l46 56-58 11c-163 32-369 116-477 194-55 40-175 155-175 168 0 4 155 8 345 8h345v80 80h-420c-259 0-420 4-420 10 0 5 4 31 9 57 5 26 12 65 16 86l6 37h349 350v80 80h-345-345v90 90h310 310v290 290h-705-705v-290zm590 0v-140h-210-210v140 140h210 210v-140zm630 0v-140h-215-215v140 140h215 215v-140z"/><path d="M781 8020c-29-39-52-72-50-74 2-2 48-27 102-55 107-55 248-144 313-197l41-33 57 80c48 66 56 82 45 95-34 42-405 254-444 254-5 0-34-32-64-70z"/><path d="M1175 7253c-76-169-229-470-310-612-36-63-62-118-58-122 5-4 44-32 87-63l79-56 45 82c103 191 381 783 371 791-2 2-34 26-70 55-37 29-71 52-76 52-5 0-36-57-68-127z"/><path d="M7528 8643l-3-148-513-3-512-2 2-313 3-312 97-3 98-3 2 223 3 223h925 925l3-222 2-223h1e2 1e2v315 315l-512 2-513 3-3 148-3 147h-99-99l-3-147z"/><path d="M7573 8013l-653-3v-95-95h542 541l-24-26c-33-36-167-140-261-203-69-46-82-51-132-51h-56v-1e2-1e2h-525-525v-1e2-1e2h525 525v-299c0-266-2-3e2-17-312-13-11-62-14-230-13-117 1-213 0-213-1 0-1 18-41 40-88 22-47 40-91 40-98 0-9 41-11 188-6 266 9 343 33 383 121 17 37 19 71 19 368v328l528 2 527 3v95 95l-527 3-528 2v38c0 38 2 40 96 98 147 91 298 208 422 328 61 60 112 112 112 116 0 12-122 1e2-134 98-6-2-305-4-663-5z"/><path d="M1289 3068l-97-41 20-46c84-198 207-464 280-610 48-96 88-176 88-177 0-1-37-31-82-67-195-153-319-319-362-484-18-69-21-215-5-282 39-170 176-299 389-366 151-47 260-59 525-58 275 1 624 27 778 59l27 6v120c0 120 0 120-22 114-124-35-473-75-723-83-414-13-645 59-731 229-75 148-20 332 151 503 143 144 322 255 820 512 363 187 425 221 425 232 0 5-25 50-55 99l-56 90-77-53c-43-29-161-97-262-150-241-127-403-216-476-260-33-19-64-35-71-35-23 0-241 464-337 718-15 39-33 72-39 72-7-1-55-19-108-42z"/><path d="M6955 3084c-3-38-19-172-35-299-48-374-62-539-62-745 0-165 16-416 27-429 2-2 48 0 102 4l98 7v186c1 160 4 199 22 269 73 275 235 521 426 648 122 81 265 1e2 377 49 65-29 139-1e2 182-174 68-116 108-311 108-526 0-450-189-737-590-898-95-38-289-91-376-102-28-3-57-10-64-14-17-10 104-190 128-190 10 0 73 13 140 30 572 140 890 444 967 925 19 116 21 365 5 475-38 250-122 434-255 559-273 255-672 156-952-236-26-37-67-104-91-148-35-66-42-74-38-45 3 19 10 76 16 125 16 134 58 377 84 488l23 97h-81c-45 0-97 3-118 6l-36 6-7-68z"/></g></svg>