<svg xmlns="http://www.w3.org/2000/svg" width="960" height="960" viewBox="0 0 960 960"><defs
      /><g transform="translate(0,-1737.2)"><g transform="translate(0,2400)"><circle r="200" style="stroke-width:.26832533" cy="97" cx="200" /><circle r="180" style="fill:#fff;stroke-width:.24149279" cy="97" cx="200" /></g><g transform="translate(560,2400)"><circle r="200" style="stroke-width:.26832533" cy="97" cx="200" /><circle r="180" style="fill:#fff;stroke-width:.24149279" cy="97" cx="200" /></g><g transform="translate(0,1840)"><circle r="200" style="stroke-width:.26832533" cy="97" cx="200" /><circle r="180" style="fill:#fff;stroke-width:.24149279" cy="97" cx="200" /></g><g transform="translate(560,1840)"><circle r="200" style="stroke-width:.26832533" cy="97" cx="200" /><circle r="180" style="fill:#fff;stroke-width:.24149279" cy="97" cx="200" /></g><path style="fill:#000;stroke-width:.26458332" d="m385.76758 1917c0 8.0774.0 16.1549.0 24.2324 62.82161.0 125.64323.0 188.46484.0.0-9.4883.0-18.9766.0-28.4648-62.82161.0-125.64323.0-188.46484.0.0 1.4108.0 2.8216.0 4.2324z" /><path style="fill:#000;stroke-width:.26458332" d="m385.76758 2477c0 8.0775.0 16.1549.0 24.2324 62.82161.0 125.64323.0 188.46484.0.0-9.4883.0-18.9765.0-28.4648-62.82161.0-125.64323.0-188.46484.0.0 1.4108.0 2.8216.0 4.2324z" /><path style="fill:#000;stroke-width:.39028704" d="m326.95489 2353.7228c4.47868 6.5997 8.95735 13.1995 13.43603 19.7992 98.35044-96.5709 196.70088-193.1418 295.05132-289.7127-5.27746-7.7768-10.55492-15.5536-15.83239-23.3304-98.35044 96.5709-196.70088 193.1417-295.05132 289.7126.79879 1.1771 1.59757 2.3542 2.39636 3.5313z" /><flowRoot style="font-style:normal;font-weight:400;font-size:48px;line-height:1.25;font-family:sans-serif;letter-spacing:0;word-spacing:0;fill:#000;fill-opacity:1;stroke:none"><flowRegion style="font-size:48px"><path d="M47.477169 48.472137h80.812202v89.90358H47.477169z" style="font-size:48px" /></flowRegion><flowPara
          /></flowRoot><text transform="scale(0.99995023,1.0000498)" y="2044.8468" x="627.98187" style="font-style:normal;font-weight:400;font-size:254.01742554px;line-height:1.25;font-family:sans-serif;letter-spacing:0;word-spacing:0;fill:#000;fill-opacity:1;stroke:none;stroke-width:21.16830063"><tspan style="stroke-width:21.16830063" y="2044.8468" x="627.98187"><tspan style="font-size:270.95074463px;stroke-width:21.16830063" y="2044.8468" x="627.98187">字</tspan></tspan></text><text transform="scale(0.99995021,1.0000498)" y="2039.8145" x="61.308346" style="font-style:normal;font-weight:400;font-size:254.01742554px;line-height:1.25;font-family:sans-serif;letter-spacing:0;word-spacing:0;fill:#000;fill-opacity:1;stroke:none;stroke-width:21.16830063"><tspan style="stroke-width:21.16830063" y="2039.8145" x="61.308346"><tspan style="font-size:270.95077515px;stroke-width:21.16830063" y="2039.8145" x="61.308346">漢</tspan></tspan></text><text transform="scale(0.99995021,1.0000498)" y="2596.8193" x="627.98187" style="font-style:normal;font-weight:400;font-size:254.01742554px;line-height:1.25;font-family:sans-serif;letter-spacing:0;word-spacing:0;fill:#000;fill-opacity:1;stroke:none;stroke-width:21.16830063"><tspan style="stroke-width:21.16830063" y="2596.8193" x="627.98187"><tspan style="font-size:270.95077515px;stroke-width:21.16830063" y="2596.8193" x="627.98187">り</tspan></tspan></text><text transform="scale(0.99995021,1.0000498)" y="2596.0063" x="57.17654" style="font-style:normal;font-weight:400;font-size:254.01742554px;line-height:1.25;font-family:sans-serif;letter-spacing:0;word-spacing:0;fill:#000;fill-opacity:1;stroke:none;stroke-width:21.16830063"><tspan style="stroke-width:21.16830063" y="2596.0063" x="57.17654"><tspan style="font-size:270.95077515px;stroke-width:21.16830063" y="2596.0063" x="57.17654">と</tspan></tspan></text><flowRoot style="font-style:normal;font-weight:400;font-size:10.66666698px;line-height:1.25;font-family:sans-serif;letter-spacing:0;word-spacing:0;fill:#000;fill-opacity:1;stroke:none"><flowRegion
         ><path d="M172.53406 150.1945h190.21173v174.65538H172.53406z" /></flowRegion><flowPara
          /></flowRoot></g></svg>