<?xml version="1.0" standalone="no"?>
<!DOCTYPE svg PUBLIC "-//W3C//DTD SVG 20010904//EN"
 "http://www.w3.org/TR/2001/REC-SVG-20010904/DTD/svg10.dtd">
<svg version="1.0" xmlns="http://www.w3.org/2000/svg"
 width="700.000000pt" height="700.000000pt" viewBox="0 0 700.000000 700.000000"
 preserveAspectRatio="xMidYMid meet">
<metadata>
Created by potrace 1.14, written by Peter Selinger 2001-2017
</metadata>
<g transform="translate(0.000000,700.000000) scale(0.100000,-0.100000)"
fill="#000000" stroke="none">
<path d="M1245 6986 c-331 -55 -587 -186 -820 -420 -208 -209 -333 -441 -396
-736 -32 -149 -33 -429 -1 -573 100 -457 386 -826 793 -1024 332 -162 737
-191 1088 -76 88 28 244 100 316 145 182 115 357 290 472 473 114 180 213 482
213 649 0 22 3 51 6 64 l6 22 578 0 578 0 6 -31 c3 -17 6 -46 6 -64 0 -50 27
-191 55 -290 36 -128 150 -351 234 -460 l70 -90 -97 -96 c-113 -112 -1761
-1728 -1872 -1835 l-75 -73 -65 50 c-442 337 -1047 390 -1543 137 -397 -203
-673 -566 -769 -1011 -31 -147 -31 -427 0 -574 142 -659 677 -1123 1348 -1169
196 -13 457 31 644 110 390 165 694 496 824 896 35 109 66 264 66 334 0 23 3
51 6 64 l6 22 578 0 578 0 6 -31 c3 -17 6 -46 6 -63 0 -59 32 -220 62 -316
135 -422 461 -768 873 -923 181 -69 418 -105 599 -93 671 46 1207 511 1348
1169 31 148 31 428 0 574 -127 589 -561 1020 -1152 1144 -137 29 -388 32 -527
6 -400 -73 -744 -300 -968 -637 -106 -159 -190 -368 -217 -537 l-12 -83 -597
0 -596 0 -6 53 c-24 203 -137 464 -287 659 l-58 76 1019 1001 c560 551 1021
1001 1024 1001 3 0 33 -22 68 -48 219 -170 496 -273 775 -291 598 -37 1123
260 1402 792 107 203 155 413 155 667 -1 186 -16 280 -71 451 -70 219 -183
399 -358 575 -209 209 -458 341 -753 401 -131 27 -433 24 -563 -5 -388 -85
-710 -304 -926 -628 -99 -148 -179 -344 -210 -513 -9 -47 -18 -92 -20 -98 -3
-10 -131 -13 -597 -13 l-593 0 -12 80 c-15 109 -82 304 -142 418 -171 324
-473 586 -810 702 -150 51 -267 71 -445 75 -113 3 -197 0 -250 -9z m440 -152
c250 -41 487 -161 679 -345 346 -330 485 -826 361 -1287 -122 -452 -482 -810
-934 -928 -331 -86 -692 -38 -985 132 -340 197 -574 532 -640 913 -20 121 -21
331 -1 447 72 411 335 763 712 953 246 123 518 162 808 115z m4015 11 c77 -7
234 -45 311 -75 405 -160 693 -488 806 -920 35 -132 43 -372 18 -521 -89 -535
-490 -953 -1026 -1070 -124 -27 -366 -32 -489 -10 -792 142 -1273 944 -1023
1706 161 492 614 851 1128 894 98 8 143 8 275 -4z m-3975 -4099 c548 -123 947
-547 1030 -1096 52 -340 -40 -700 -250 -979 -193 -256 -466 -429 -788 -498
-62 -14 -126 -18 -267 -18 -167 1 -196 3 -293 28 -256 64 -466 184 -643 369
-100 104 -162 191 -225 315 -95 187 -139 374 -139 593 0 361 125 663 380 921
200 203 433 324 720 375 98 17 379 11 475 -10z m4085 -1 c262 -58 465 -169
655 -360 258 -258 385 -563 385 -924 0 -215 -43 -404 -132 -581 -179 -355
-486 -600 -871 -696 -139 -35 -368 -43 -512 -20 -566 93 -1004 537 -1090 1106
-71 467 126 948 504 1233 165 125 376 217 572 251 110 20 383 14 489 -9z"/>
<path d="M1370 6355 l0 -85 -160 0 -160 0 0 -25 c0 -23 -3 -21 -71 29 -39 30
-115 77 -168 105 l-98 51 -33 -43 c-18 -23 -37 -47 -42 -54 -6 -8 16 -25 73
-55 45 -23 120 -73 168 -109 l86 -65 40 55 40 56 3 -32 3 -33 160 0 159 0 0
-70 0 -70 70 0 70 0 0 70 0 70 160 0 160 0 0 -70 0 -70 70 0 70 0 0 70 0 70
173 2 172 3 3 58 3 57 -176 0 -175 0 0 85 0 85 -70 0 -70 0 0 -85 0 -85 -160
0 -160 0 0 85 0 85 -70 0 -70 0 0 -85z"/>
<path d="M1167 5963 c-4 -3 -7 -100 -7 -215 l0 -208 220 0 220 0 0 -65 0 -65
-242 -2 -243 -3 0 -55 0 -55 238 -3 239 -2 -7 -43 c-16 -95 10 -86 -287 -89
l-263 -3 -3 -57 -3 -58 231 0 c126 0 230 -4 230 -8 0 -15 -96 -101 -158 -141
-63 -39 -235 -112 -299 -126 -18 -4 -33 -9 -33 -12 0 -7 81 -113 86 -113 1 0
36 12 76 26 92 33 217 96 288 144 66 45 170 152 195 199 15 30 19 33 29 19
106 -152 176 -216 306 -287 62 -33 242 -101 269 -101 4 0 13 11 19 24 6 13 25
40 42 59 l31 36 -43 10 c-189 46 -329 114 -420 204 l-63 62 258 3 258 2 -3 58
-3 57 -309 3 c-266 2 -307 4 -302 17 3 8 8 37 12 65 l7 50 256 2 256 3 3 58 3
57 -256 0 -255 0 0 65 0 65 225 0 225 0 0 215 0 215 -508 0 c-280 0 -512 -3
-515 -7z m431 -210 l3 -103 -156 0 -155 0 0 105 0 106 153 -3 152 -3 3 -102z
m462 2 l0 -105 -160 0 -160 0 0 105 0 105 160 0 160 0 0 -105z"/>
<path d="M568 5848 l-38 -52 93 -49 c50 -27 127 -73 169 -103 l77 -54 40 59
c46 67 48 62 -52 125 -61 39 -231 126 -244 126 -4 0 -25 -24 -45 -52z"/>
<path d="M873 5327 c-49 -111 -189 -390 -241 -480 l-50 -87 61 -45 c57 -41 63
-43 76 -27 31 39 291 586 291 612 0 4 -25 26 -54 49 l-55 41 -28 -63z"/>
<path d="M5488 6303 l-3 -108 -373 -3 -372 -2 2 -228 3 -227 70 0 70 0 3 163
2 162 675 0 675 0 0 -165 0 -165 75 0 75 0 0 230 0 230 -375 0 -375 0 0 110 0
110 -75 0 -74 0 -3 -107z"/>
<path d="M5518 5843 l-478 -3 0 -65 0 -65 403 -2 402 -3 -70 -58 c-122 -102
-197 -147 -244 -147 l-41 0 0 -75 0 -75 -385 0 -386 0 3 -67 3 -68 383 -3 382
-2 0 -224 c0 -195 -2 -225 -16 -230 -9 -3 -83 -6 -165 -6 -82 0 -149 -2 -149
-4 0 -2 14 -33 30 -70 l30 -66 98 0 c117 0 222 15 262 35 59 31 64 55 68 323
l4 242 379 0 379 0 0 70 0 70 -380 0 -380 0 0 33 c0 29 7 36 67 72 128 76 383
289 383 320 0 13 -84 76 -97 73 -4 -2 -223 -4 -485 -5z"/>
<path d="M940 2240 c-45 -20 -64 -34 -62 -45 5 -26 129 -301 205 -454 l72
-144 -25 -16 c-123 -79 -253 -236 -291 -348 -49 -147 -21 -300 72 -393 129
-129 352 -174 746 -152 114 7 253 19 308 27 55 8 103 15 108 15 11 0 9 170 -3
170 -5 0 -65 -9 -132 -20 -357 -57 -659 -52 -801 13 -117 53 -164 126 -155
241 7 88 52 169 139 250 116 110 226 178 614 378 149 77 274 143 278 148 10 8
-62 139 -76 140 -5 0 -23 -11 -40 -24 -18 -14 -140 -83 -272 -154 -132 -70
-261 -141 -287 -156 l-47 -27 -25 43 c-40 69 -139 283 -191 416 -27 67 -54
122 -59 121 -6 -1 -40 -14 -76 -29z"/>
<path d="M5077 2294 c-4 -4 -7 -24 -7 -44 0 -21 -9 -103 -20 -184 -49 -360
-62 -619 -40 -805 5 -46 11 -84 12 -85 2 -1 36 0 76 2 l73 4 -7 82 c-19 231
78 490 243 652 154 152 330 171 443 48 90 -97 124 -221 125 -449 0 -178 -15
-250 -78 -370 -39 -73 -142 -178 -221 -224 -83 -49 -225 -100 -346 -124 -58
-12 -106 -22 -108 -23 -2 -1 17 -33 42 -72 l46 -70 82 18 c393 86 634 286 721
599 18 65 21 103 21 266 0 209 -13 284 -73 410 -184 392 -627 335 -868 -110
-22 -41 -33 -53 -33 -38 0 58 72 481 87 506 2 4 -27 7 -66 7 -38 0 -76 2 -83
5 -8 3 -17 2 -21 -1z"/>
</g>
</svg>
